<svg xmlns="http://www.w3.org/2000/svg" xmlns:xlink="http://www.w3.org/1999/xlink" width="500" zoomAndPan="magnify" viewBox="0 0 375 374.999991" height="500" preserveAspectRatio="xMidYMid meet" version="1.0"><defs><clipPath id="b758672d94"><path d="M 131.25 131.25 L 243.75 131.25 L 243.75 243.75 L 131.25 243.75 Z M 131.25 131.25 " clip-rule="nonzero"/></clipPath><clipPath id="e035e1be12"><path d="M 33 80 L 369.71875 80 L 369.71875 375 L 33 375 Z M 33 80 " clip-rule="nonzero"/></clipPath><clipPath id="be4fd32e60"><path d="M 32.21875 80 L 302 80 L 302 375 L 32.21875 375 Z M 32.21875 80 " clip-rule="nonzero"/></clipPath></defs><g clip-path="url(#b758672d94)"><path fill="#f0922d" d="M 131.25 131.25 L 243.75 131.25 L 243.75 243.75 L 131.25 243.75 Z M 131.25 131.25 " fill-opacity="1" fill-rule="nonzero"/></g><g clip-path="url(#e035e1be12)"><path fill="#f92121" d="M 369.070312 201.628906 C 369.070312 248.714844 338.449219 313.757812 301.464844 349.300781 C 285.0625 365.070312 267.363281 375.027344 250.554688 375.027344 C 239.90625 375.027344 229.316406 373.332031 220.191406 370.566406 C 207.671875 366.769531 194.375 366.769531 181.886719 370.566406 C 172.761719 373.332031 162.144531 375.027344 151.523438 375.027344 C 133.882812 375.027344 115.316406 364.09375 98.253906 346.96875 C 62.304688 310.992188 33.007812 247.679688 33.007812 201.628906 C 33.007812 133.683594 73.675781 92.613281 111.894531 82.714844 C 130.199219 77.964844 151.4375 81.015625 168.617188 85.476562 C 186.375 90.109375 204.792969 90.886719 222.78125 87.808594 C 226.40625 87.171875 230.003906 86.398438 233.574219 85.476562 C 250.726562 81.015625 271.964844 77.964844 290.300781 82.714844 C 328.433594 92.613281 369.070312 133.652344 369.070312 201.628906 Z M 369.070312 201.628906 " fill-opacity="1" fill-rule="nonzero"/></g><g clip-path="url(#be4fd32e60)"><path fill="#e20019" d="M 301.464844 349.269531 C 256.050781 357.300781 221.054688 355.085938 194.722656 348.695312 C 151.667969 338.277344 119.664062 301.957031 114.3125 258.011719 C 100.957031 147.898438 172.878906 115.839844 172.878906 115.839844 C 193.972656 125.421875 217.660156 120.300781 217.660156 120.300781 C 202.519531 105.191406 222.667969 87.777344 222.667969 87.777344 C 204.707031 90.859375 186.261719 90.082031 168.503906 85.445312 C 151.351562 80.984375 130.109375 77.933594 111.777344 82.683594 C 73.558594 92.585938 32.894531 133.652344 32.894531 201.601562 C 32.894531 269.550781 96.699219 375 151.4375 375 C 162.085938 375 172.675781 373.300781 181.800781 370.539062 C 194.320312 366.738281 207.613281 366.738281 220.105469 370.539062 C 229.226562 373.300781 239.847656 375 250.46875 375 C 267.363281 375.027344 285.0625 365.070312 301.464844 349.269531 Z M 301.464844 349.269531 " fill-opacity="1" fill-rule="nonzero"/></g><path fill="#e21919" d="M 236.222656 111.003906 C 236.222656 118.746094 224.078125 125.164062 207.960938 126.628906 C 205.714844 126.832031 203.382812 126.949219 201.023438 126.949219 C 198.550781 126.949219 196.132812 126.832031 193.800781 126.628906 C 177.828125 125.105469 165.855469 118.714844 165.855469 111.03125 L 236.222656 111.03125 Z M 236.222656 111.003906 " fill-opacity="1" fill-rule="nonzero"/><path fill="#b24800" d="M 224.308594 45.730469 L 202.578125 84.929688 C 204.21875 92.871094 205.601562 101.621094 206.519531 110.976562 C 207.011719 116.011719 207.382812 121.25 207.558594 126.601562 C 205.65625 126.804688 203.699219 126.917969 201.714844 126.917969 C 199.613281 126.917969 197.597656 126.804688 195.644531 126.601562 C 195.46875 121.25 195.066406 116.039062 194.550781 111.003906 C 190.664062 74.367188 178.777344 47.371094 178.632812 47.054688 C 177.078125 43.601562 178.203125 39.3125 181.109375 37.472656 C 184.015625 35.628906 187.613281 36.953125 189.167969 40.40625 C 189.511719 41.210938 193.886719 51.140625 198.320312 67 L 214.40625 37.960938 C 216.21875 34.707031 219.902344 33.789062 222.636719 35.945312 C 225.371094 38.074219 226.121094 42.449219 224.308594 45.730469 Z M 224.308594 45.730469 " fill-opacity="1" fill-rule="nonzero"/><path fill="#008106" d="M 366.851562 7.597656 C 366.851562 7.597656 336.664062 44.40625 294.183594 44.40625 C 256.828125 44.40625 210.980469 61.1875 200.449219 65.242188 C 199.183594 65.734375 198.433594 66.019531 198.261719 66.105469 C 198.234375 66.105469 198.234375 66.136719 198.234375 66.136719 L 198.234375 66.105469 C 198.808594 64.324219 217.859375 7.570312 266.816406 3.855469 C 316.515625 0.0585938 343.570312 22.707031 366.851562 7.597656 Z M 366.851562 7.597656 " fill-opacity="1" fill-rule="nonzero"/><path fill="#feb1c0" d="M 278.097656 205.402344 C 287.707031 206.207031 295.941406 209.804688 301.265625 218.09375 C 307.25 227.417969 304.574219 238.496094 295.105469 245.433594 C 282.039062 255.015625 262.902344 253.40625 251.675781 241.808594 C 243.734375 233.605469 244.511719 220.394531 253.316406 213.113281 C 257.261719 209.832031 261.632812 207.414062 266.671875 206.320312 C 271.132812 210.695312 274.382812 210.4375 278.097656 205.402344 Z M 278.097656 205.402344 " fill-opacity="1" fill-rule="nonzero"/><path fill="#feb1c0" d="M 125.792969 206.351562 C 131.492188 207.703125 136.730469 210.121094 140.585938 214.554688 C 149.59375 224.855469 148.097656 236.628906 136.933594 245.519531 C 125.824219 254.355469 105.476562 253.40625 95.171875 243.589844 C 84.378906 233.289062 86.050781 218.09375 98.914062 210.351562 C 103.664062 207.5 108.757812 205.660156 114.339844 205.402344 C 118.082031 210.410156 121.332031 210.695312 125.792969 206.351562 Z M 125.792969 206.351562 " fill-opacity="1" fill-rule="nonzero"/><path fill="#000000" d="M 278.097656 205.402344 C 274.382812 210.410156 271.132812 210.667969 266.671875 206.320312 C 266.410156 205 266.152344 203.675781 265.921875 202.351562 C 265.203125 198.261719 262.296875 195.671875 258.410156 195.585938 C 254.46875 195.53125 251.53125 197.945312 250.613281 202.035156 C 250.554688 202.292969 250.527344 202.582031 250.496094 202.839844 C 249.664062 207.617188 247.042969 209.949219 243.300781 209.230469 C 239.53125 208.480469 237.660156 205.257812 238.351562 200.710938 C 240.050781 189.484375 249.460938 182.234375 260.800781 183.382812 C 271.363281 184.476562 278.875 194.03125 278.097656 205.402344 Z M 278.097656 205.402344 " fill-opacity="1" fill-rule="nonzero"/><path fill="#000000" d="M 125.792969 206.351562 C 121.363281 210.695312 118.082031 210.410156 114.367188 205.429688 C 113.621094 194.003906 121.101562 184.476562 131.636719 183.414062 C 142.976562 182.261719 152.359375 189.515625 154.085938 200.738281 C 154.773438 205.257812 152.875 208.507812 149.132812 209.257812 C 145.421875 209.976562 142.804688 207.644531 141.941406 202.867188 C 141.105469 198.148438 138.285156 195.558594 134.023438 195.617188 C 129.851562 195.671875 127.203125 198.320312 126.457031 203.183594 C 126.3125 204.25 126.023438 205.285156 125.792969 206.351562 Z M 125.792969 206.351562 " fill-opacity="1" fill-rule="nonzero"/><path fill="#000000" d="M 175.46875 219.53125 C 175.410156 216.941406 176.589844 214.984375 178.863281 213.949219 C 181.453125 212.769531 183.957031 213.199219 185.972656 215.300781 C 189.65625 219.101562 194.03125 220.710938 199.296875 219.5625 C 202.058594 218.957031 204.21875 217.402344 206.261719 215.53125 C 209.339844 212.683594 212.824219 212.625 215.328125 215.1875 C 217.773438 217.691406 217.542969 221.316406 214.808594 224.308594 C 205.054688 234.871094 187.296875 234.8125 177.597656 224.222656 C 176.332031 222.871094 175.46875 221.429688 175.46875 219.53125 Z M 175.46875 219.53125 " fill-opacity="1" fill-rule="nonzero"/></svg>