<svg xmlns="http://www.w3.org/2000/svg" xmlns:xlink="http://www.w3.org/1999/xlink" width="500" zoomAndPan="magnify" viewBox="0 0 375 374.999991" height="500" preserveAspectRatio="xMidYMid meet" version="1.0"><path fill="#117f40" d="M 374.464844 187.5625 C 374.464844 281.988281 304.472656 360.042969 213.539062 372.703125 C 196.285156 375.09375 178.808594 375.09375 161.554688 372.703125 C 70.625 360.042969 0.628906 281.988281 0.628906 187.5625 C 0.628906 93.136719 70.625 15.082031 161.554688 2.425781 C 178.808594 0.03125 196.285156 0.03125 213.539062 2.425781 C 304.472656 15.082031 374.464844 93.136719 374.464844 187.5625 Z M 374.464844 187.5625 " fill-opacity="1" fill-rule="nonzero"/><path fill="#85bb40" d="M 337.53125 187.5625 C 337.53125 183.09375 338.917969 178.273438 340.398438 173.171875 C 342.410156 166.152344 344.519531 158.910156 343.355469 151.355469 C 342.128906 143.261719 337.53125 136.210938 333.46875 129.976562 C 330.636719 125.628906 327.960938 121.503906 326.699219 117.632812 C 325.316406 113.320312 325.09375 108.4375 324.84375 103.242188 C 324.496094 95.875 324.179688 88.289062 320.433594 81.265625 C 316.277344 73.457031 309.035156 67.757812 302.613281 62.75 C 298.550781 59.570312 294.679688 56.550781 292.097656 53.402344 C 289.199219 49.90625 286.996094 45.65625 284.699219 41.152344 C 280.980469 34.003906 277.140625 26.605469 269.929688 21.253906 C 261.554688 15.019531 251.039062 12.847656 241.75 10.894531 C 237.375 10.105469 233.027344 9.003906 228.839844 7.652344 C 224.875 6.140625 221.0625 4.375 217.347656 2.425781 C 197.574219 0.03125 177.519531 0.03125 157.777344 2.425781 C 154.09375 4.375 150.25 6.109375 146.285156 7.652344 C 142.066406 9.003906 137.75 10.074219 133.375 10.894531 C 124.085938 12.816406 113.570312 15.019531 105.195312 21.253906 C 97.984375 26.605469 94.144531 34.003906 90.429688 41.152344 C 88.097656 45.625 85.894531 49.875 83.027344 53.402344 C 80.445312 56.519531 76.605469 59.539062 72.511719 62.75 C 66.089844 67.757812 58.847656 73.457031 54.691406 81.265625 C 50.945312 88.320312 50.597656 95.90625 50.285156 103.242188 C 50.0625 108.4375 49.8125 113.320312 48.425781 117.632812 C 47.167969 121.535156 44.488281 125.628906 41.65625 129.976562 C 37.59375 136.210938 32.996094 143.261719 31.769531 151.355469 C 30.605469 158.910156 32.714844 166.183594 34.730469 173.171875 C 36.210938 178.273438 37.59375 183.09375 37.59375 187.5625 C 37.59375 192.035156 36.210938 196.851562 34.730469 201.953125 C 32.714844 208.972656 30.605469 216.214844 31.769531 223.773438 C 32.996094 231.863281 37.59375 238.917969 41.65625 245.152344 C 44.488281 249.496094 47.167969 253.589844 48.425781 257.492188 C 49.8125 261.777344 50.03125 266.6875 50.285156 271.882812 C 50.628906 279.21875 50.945312 286.839844 54.691406 293.859375 C 58.847656 301.667969 66.089844 307.367188 72.511719 312.375 C 76.574219 315.554688 80.445312 318.578125 83.027344 321.726562 C 85.925781 325.21875 88.128906 329.472656 90.429688 333.972656 C 94.144531 341.121094 97.984375 348.519531 105.195312 353.871094 C 113.570312 360.105469 124.085938 362.28125 133.375 364.230469 C 137.785156 365.019531 142.097656 366.121094 146.316406 367.476562 C 150.285156 368.984375 154.09375 370.75 157.808594 372.703125 C 177.582031 375.09375 197.636719 375.09375 217.378906 372.703125 C 221.0625 370.75 224.90625 369.019531 228.871094 367.476562 C 233.09375 366.121094 237.40625 365.050781 241.8125 364.230469 C 251.101562 362.3125 261.617188 360.105469 269.992188 353.871094 C 277.203125 348.519531 281.046875 341.121094 284.761719 333.972656 C 287.089844 329.503906 289.292969 325.25 292.160156 321.726562 C 294.742188 318.609375 298.582031 315.585938 302.675781 312.375 C 309.097656 307.367188 316.339844 301.667969 320.496094 293.859375 C 324.246094 286.808594 324.589844 279.21875 324.90625 271.882812 C 325.125 266.6875 325.347656 261.777344 326.761719 257.492188 C 328.023438 253.589844 330.699219 249.496094 333.53125 245.152344 C 337.59375 238.917969 342.191406 231.863281 343.417969 223.773438 C 344.585938 216.214844 342.476562 208.941406 340.460938 201.953125 C 338.917969 196.851562 337.53125 192.003906 337.53125 187.5625 Z M 152.738281 353.621094 C 147.734375 351.953125 142.570312 350.660156 137.3125 349.683594 C 129.1875 348.015625 121.535156 346.410156 116.277344 342.507812 C 111.996094 339.328125 109.066406 333.722656 106.015625 327.832031 C 103.433594 322.859375 100.789062 317.726562 96.882812 313.035156 C 93.199219 308.597656 88.476562 304.878906 83.910156 301.289062 C 78.242188 296.851562 72.859375 292.632812 70.183594 287.625 C 67.882812 283.3125 67.632812 277.488281 67.347656 271.347656 C 67.066406 265.523438 66.8125 259.476562 64.863281 253.496094 C 63.035156 247.828125 59.730469 242.726562 56.519531 237.816406 C 52.898438 232.273438 49.496094 227.046875 48.710938 221.851562 C 47.984375 217.128906 49.589844 211.554688 51.289062 205.636719 C 52.960938 199.875 54.691406 193.921875 54.691406 187.59375 C 54.691406 181.265625 52.960938 175.316406 51.289062 169.554688 C 49.589844 163.632812 47.984375 158.058594 48.710938 153.335938 C 49.496094 148.140625 52.898438 142.882812 56.519531 137.375 C 59.730469 132.429688 63.066406 127.328125 64.863281 121.695312 C 66.8125 115.679688 67.066406 109.667969 67.347656 103.839844 C 67.632812 97.703125 67.882812 91.875 70.183594 87.5625 C 72.859375 82.523438 78.242188 78.335938 83.910156 73.898438 C 88.476562 70.308594 93.230469 66.625 96.882812 62.152344 C 100.753906 57.429688 103.433594 52.296875 106.015625 47.355469 C 109.066406 41.4375 111.996094 35.863281 116.277344 32.683594 C 121.535156 28.777344 129.1875 27.171875 137.3125 25.503906 C 142.570312 24.527344 147.734375 23.207031 152.738281 21.566406 C 152.832031 21.535156 152.960938 21.472656 153.085938 21.441406 C 148.867188 26.449219 143.859375 32.652344 140.742188 40.617188 C 138.601562 46.0625 137.910156 52.015625 137.214844 57.808594 C 136.808594 62.027344 136.113281 66.246094 135.136719 70.402344 C 134.097656 74.023438 132.777344 77.582031 131.234375 81.046875 C 129.03125 86.304688 126.511719 92.253906 125.410156 98.773438 C 124.464844 104.40625 124.75 110.074219 125 115.585938 C 125.347656 119.929688 125.347656 124.308594 125 128.683594 C 124.433594 132.714844 123.582031 136.679688 122.386719 140.617188 C 120.90625 146.09375 119.363281 151.761719 119.050781 157.933594 C 118.765625 163.664062 119.679688 169.238281 120.558594 174.652344 C 121.378906 178.9375 121.851562 183.28125 122.007812 187.59375 C 121.882812 191.941406 121.410156 196.253906 120.558594 200.535156 C 119.679688 205.949219 118.765625 211.523438 119.050781 217.253906 C 119.363281 223.394531 120.90625 229.0625 122.386719 234.570312 C 123.582031 238.476562 124.433594 242.476562 125 246.503906 C 125.347656 250.851562 125.316406 255.226562 125 259.601562 C 124.714844 265.113281 124.433594 270.8125 125.410156 276.417969 C 126.511719 282.933594 129.03125 288.886719 131.234375 294.144531 C 132.808594 297.605469 134.097656 301.164062 135.136719 304.785156 C 136.113281 308.941406 136.808594 313.160156 137.214844 317.378906 C 137.910156 323.140625 138.632812 329.125 140.742188 334.570312 C 143.890625 342.570312 148.867188 348.742188 153.085938 353.777344 C 152.960938 353.714844 152.867188 353.652344 152.738281 353.621094 Z M 218.167969 329.691406 C 215.679688 336.050781 211.492188 341.027344 207.429688 345.84375 C 205.636719 347.984375 203.902344 350.03125 202.363281 352.171875 C 198.582031 357.367188 191.5625 367.003906 187.5625 367.003906 C 183.597656 367.003906 176.542969 357.367188 172.765625 352.171875 C 171.222656 350.03125 169.488281 348.015625 167.695312 345.84375 C 163.632812 341.027344 159.445312 336.050781 156.957031 329.691406 C 155.445312 325.882812 154.878906 320.96875 154.25 315.804688 C 153.777344 310.988281 152.992188 306.203125 151.859375 301.480469 C 150.660156 297.230469 149.117188 293.042969 147.292969 288.949219 C 145.183594 283.910156 143.167969 279.1875 142.316406 274.148438 C 141.59375 269.929688 141.84375 265.207031 142.097656 260.203125 C 142.476562 255.164062 142.476562 250.125 142.035156 245.089844 C 141.402344 240.367188 140.398438 235.671875 139.042969 231.078125 C 137.65625 226.039062 136.398438 221.285156 136.144531 216.5625 C 135.925781 212.214844 136.679688 207.558594 137.5 202.613281 C 138.445312 197.636719 138.980469 192.601562 139.105469 187.5625 C 138.980469 182.523438 138.445312 177.488281 137.5 172.511719 C 136.679688 167.570312 135.925781 162.878906 136.144531 158.5625 C 136.367188 153.839844 137.65625 149.054688 139.042969 144.050781 C 140.429688 139.453125 141.4375 134.761719 142.035156 130.039062 C 142.441406 125 142.476562 119.960938 142.097656 114.925781 C 141.84375 109.917969 141.59375 105.164062 142.316406 100.976562 C 143.167969 95.96875 145.152344 91.214844 147.292969 86.175781 C 149.117188 82.085938 150.628906 77.898438 151.859375 73.644531 C 152.960938 68.921875 153.777344 64.136719 154.25 59.320312 C 154.847656 54.15625 155.445312 49.277344 156.957031 45.433594 C 159.445312 39.105469 163.632812 34.097656 167.695312 29.28125 C 169.488281 27.140625 171.222656 25.09375 172.765625 22.984375 C 176.542969 17.789062 183.5625 8.15625 187.5625 8.15625 C 191.53125 8.15625 198.550781 17.789062 202.363281 22.984375 C 203.902344 25.125 205.636719 27.140625 207.429688 29.28125 C 211.492188 34.097656 215.679688 39.105469 218.167969 45.433594 C 219.679688 49.277344 220.246094 54.15625 220.875 59.320312 C 221.347656 64.136719 222.136719 68.921875 223.269531 73.644531 C 224.464844 77.898438 225.976562 82.085938 227.832031 86.175781 C 229.941406 91.214844 231.925781 95.9375 232.808594 100.976562 C 233.53125 105.164062 233.28125 109.917969 233.027344 114.925781 C 232.652344 119.960938 232.652344 125 233.09375 130.039062 C 233.722656 134.761719 234.730469 139.453125 236.082031 144.050781 C 237.46875 149.085938 238.726562 153.839844 238.980469 158.5625 C 239.199219 162.910156 238.445312 167.570312 237.625 172.511719 C 236.679688 177.488281 236.144531 182.523438 236.019531 187.5625 C 236.144531 192.601562 236.679688 197.636719 237.625 202.613281 C 238.445312 207.558594 239.199219 212.25 238.980469 216.5625 C 238.757812 221.285156 237.46875 226.070312 236.082031 231.078125 C 234.699219 235.671875 233.691406 240.367188 233.09375 245.089844 C 232.683594 250.125 232.652344 255.164062 233.027344 260.203125 C 233.28125 265.207031 233.53125 269.960938 232.808594 274.148438 C 231.957031 279.15625 229.976562 283.910156 227.832031 288.949219 C 226.007812 293.042969 224.496094 297.230469 223.269531 301.480469 C 222.136719 306.203125 221.347656 310.988281 220.875 315.804688 C 220.246094 320.96875 219.679688 325.882812 218.167969 329.691406 Z M 323.773438 205.605469 C 325.472656 211.523438 327.078125 217.097656 326.355469 221.820312 C 325.566406 227.015625 322.167969 232.273438 318.546875 237.785156 C 315.332031 242.726562 311.996094 247.828125 310.203125 253.464844 C 308.25 259.445312 307.996094 265.492188 307.714844 271.316406 C 307.429688 277.457031 307.179688 283.28125 304.878906 287.59375 C 302.203125 292.632812 296.820312 296.820312 291.152344 301.257812 C 286.585938 304.847656 281.832031 308.5625 278.179688 313.003906 C 274.308594 317.726562 271.632812 322.859375 269.050781 327.800781 C 265.996094 333.722656 263.066406 339.292969 258.785156 342.476562 C 253.527344 346.378906 245.875 347.984375 237.75 349.652344 C 232.492188 350.628906 227.328125 351.953125 222.324219 353.589844 C 222.230469 353.621094 222.101562 353.683594 221.976562 353.714844 C 226.195312 348.710938 231.203125 342.507812 234.320312 334.507812 C 236.460938 329.0625 237.152344 323.109375 237.847656 317.316406 C 238.253906 313.097656 238.949219 308.878906 239.925781 304.722656 C 240.964844 301.101562 242.285156 297.542969 243.828125 294.082031 C 246.03125 288.824219 248.550781 282.871094 249.652344 276.355469 C 250.597656 270.75 250.316406 265.050781 250.0625 259.539062 C 249.714844 255.195312 249.714844 250.820312 250.0625 246.441406 C 250.628906 242.410156 251.480469 238.445312 252.675781 234.507812 C 254.15625 229.03125 255.699219 223.363281 256.015625 217.191406 C 256.296875 211.460938 255.382812 205.855469 254.503906 200.472656 C 253.683594 196.191406 253.210938 191.84375 253.054688 187.53125 C 253.179688 183.1875 253.652344 178.871094 254.503906 174.589844 C 255.382812 169.175781 256.296875 163.601562 256.015625 157.871094 C 255.699219 151.699219 254.15625 146.03125 252.675781 140.554688 C 251.480469 136.648438 250.628906 132.652344 250.0625 128.621094 C 249.714844 124.277344 249.75 119.898438 250.0625 115.523438 C 250.347656 110.011719 250.628906 104.3125 249.652344 98.710938 C 248.550781 92.191406 246.03125 86.242188 243.828125 80.980469 C 242.253906 77.519531 240.964844 73.960938 239.925781 70.339844 C 238.949219 66.183594 238.253906 61.964844 237.847656 57.746094 C 237.152344 51.984375 236.429688 46 234.320312 40.554688 C 231.171875 32.554688 226.195312 26.386719 221.976562 21.378906 C 222.101562 21.410156 222.199219 21.472656 222.324219 21.503906 C 227.328125 23.171875 232.492188 24.464844 237.75 25.441406 C 245.875 27.109375 253.527344 28.714844 258.785156 32.621094 C 263.066406 35.800781 265.996094 41.402344 269.050781 47.292969 C 271.632812 52.265625 274.277344 57.398438 278.179688 62.089844 C 281.863281 66.5625 286.585938 70.246094 291.152344 73.835938 C 296.820312 78.273438 302.203125 82.492188 304.878906 87.5 C 307.179688 91.8125 307.429688 97.636719 307.714844 103.777344 C 307.996094 109.601562 308.25 115.648438 310.203125 121.632812 C 312.027344 127.265625 315.332031 132.367188 318.546875 137.3125 C 322.167969 142.851562 325.566406 148.078125 326.355469 153.273438 C 327.078125 157.996094 325.472656 163.570312 323.773438 169.488281 C 322.101562 175.25 320.371094 181.203125 320.371094 187.53125 C 320.371094 193.859375 322.101562 199.84375 323.773438 205.605469 Z M 323.773438 205.605469 " fill-opacity="1" fill-rule="nonzero"/><path fill="#feb1c0" d="M 277.078125 197.007812 C 287.59375 197.890625 296.597656 201.828125 302.425781 210.894531 C 308.972656 221.097656 306.046875 233.21875 295.6875 240.804688 C 281.390625 251.289062 260.453125 249.527344 248.175781 236.839844 C 239.484375 227.863281 240.332031 213.414062 249.96875 205.445312 C 254.28125 201.859375 259.066406 199.210938 264.578125 198.015625 C 269.457031 202.800781 273.015625 202.519531 277.078125 197.007812 Z M 277.078125 197.007812 " fill-opacity="1" fill-rule="nonzero"/><path fill="#feb1c0" d="M 110.453125 198.046875 C 116.6875 199.527344 122.417969 202.171875 126.636719 207.019531 C 136.492188 218.292969 134.855469 231.171875 122.636719 240.902344 C 110.484375 250.566406 88.222656 249.527344 76.953125 238.789062 C 65.144531 227.519531 66.972656 210.894531 81.046875 202.425781 C 86.242188 199.308594 91.8125 197.292969 97.921875 197.007812 C 102.015625 202.488281 105.574219 202.800781 110.453125 198.046875 Z M 110.453125 198.046875 " fill-opacity="1" fill-rule="nonzero"/><path fill="#000000" d="M 277.078125 197.007812 C 273.015625 202.488281 269.457031 202.769531 264.578125 198.015625 C 264.292969 196.566406 264.011719 195.121094 263.757812 193.671875 C 262.972656 189.199219 259.792969 186.367188 255.542969 186.273438 C 251.226562 186.210938 248.015625 188.855469 247.007812 193.324219 C 246.945312 193.609375 246.914062 193.921875 246.882812 194.207031 C 245.96875 199.433594 243.105469 201.984375 239.011719 201.195312 C 234.886719 200.378906 232.839844 196.851562 233.597656 191.875 C 235.453125 179.597656 245.75 171.664062 258.15625 172.921875 C 269.710938 174.117188 277.929688 184.570312 277.078125 197.007812 Z M 277.078125 197.007812 " fill-opacity="1" fill-rule="nonzero"/><path fill="#000000" d="M 110.453125 198.046875 C 105.605469 202.800781 102.015625 202.488281 97.953125 197.039062 C 97.136719 184.539062 105.320312 174.117188 116.84375 172.953125 C 129.25 171.695312 139.515625 179.628906 141.402344 191.90625 C 142.160156 196.851562 140.082031 200.410156 135.988281 201.226562 C 131.925781 202.015625 129.0625 199.464844 128.117188 194.238281 C 127.203125 189.074219 124.117188 186.242188 119.457031 186.304688 C 114.894531 186.367188 111.996094 189.261719 111.175781 194.585938 C 111.019531 195.75 110.707031 196.882812 110.453125 198.046875 Z M 110.453125 198.046875 " fill-opacity="1" fill-rule="nonzero"/><path fill="#000000" d="M 164.796875 212.46875 C 164.734375 209.632812 166.027344 207.492188 168.515625 206.359375 C 171.347656 205.070312 174.085938 205.542969 176.289062 207.839844 C 180.320312 211.996094 185.105469 213.757812 190.867188 212.5 C 193.890625 211.839844 196.253906 210.136719 198.488281 208.09375 C 201.859375 204.976562 205.667969 204.910156 208.40625 207.714844 C 211.082031 210.453125 210.832031 214.421875 207.839844 217.695312 C 197.167969 229.25 177.738281 229.1875 167.128906 217.601562 C 165.742188 216.121094 164.796875 214.546875 164.796875 212.46875 Z M 164.796875 212.46875 " fill-opacity="1" fill-rule="nonzero"/></svg>